<svg width="23" height="11" viewBox="0 0 23 11" fill="none" xmlns="http://www.w3.org/2000/svg">
<path d="M2.66602 4.7832H3.61621C4.21322 4.77409 4.68262 4.61686 5.02441 4.31152C5.36621 4.00618 5.53711 3.59375 5.53711 3.07422C5.53711 1.90755 4.95605 1.32422 3.79395 1.32422C3.24707 1.32422 2.80957 1.48145 2.48145 1.7959C2.15788 2.10579 1.99609 2.51823 1.99609 3.0332H0.731445C0.731445 2.24479 1.01855 1.59082 1.59277 1.07129C2.17155 0.547201 2.90527 0.285156 3.79395 0.285156C4.73275 0.285156 5.46875 0.533529 6.00195 1.03027C6.53516 1.52702 6.80176 2.21745 6.80176 3.10156C6.80176 3.53451 6.66048 3.95378 6.37793 4.35938C6.09993 4.76497 5.7194 5.06803 5.23633 5.26855C5.7832 5.44173 6.20475 5.72884 6.50098 6.12988C6.80176 6.53092 6.95215 7.02083 6.95215 7.59961C6.95215 8.49284 6.66048 9.2015 6.07715 9.72559C5.49382 10.2497 4.73503 10.5117 3.80078 10.5117C2.86654 10.5117 2.10547 10.2588 1.51758 9.75293C0.934245 9.24707 0.642578 8.57943 0.642578 7.75H1.91406C1.91406 8.27409 2.08496 8.69336 2.42676 9.00781C2.76855 9.32227 3.22656 9.47949 3.80078 9.47949C4.41146 9.47949 4.87858 9.31999 5.20215 9.00098C5.52572 8.68197 5.6875 8.22396 5.6875 7.62695C5.6875 7.04818 5.50977 6.60384 5.1543 6.29395C4.79883 5.98405 4.28613 5.82454 3.61621 5.81543H2.66602V4.7832ZM14.0273 7.03223H15.4082V8.06445H14.0273V10.375H12.7559V8.06445H8.22363V7.31934L12.6807 0.421875H14.0273V7.03223ZM9.65918 7.03223H12.7559V2.15137L12.6055 2.4248L9.65918 7.03223ZM21.3965 6C21.1322 6.31445 20.8154 6.56738 20.4463 6.75879C20.0817 6.9502 19.6807 7.0459 19.2432 7.0459C18.6689 7.0459 18.1676 6.90462 17.7393 6.62207C17.3154 6.33952 16.9873 5.94303 16.7549 5.43262C16.5225 4.91764 16.4062 4.35026 16.4062 3.73047C16.4062 3.0651 16.5316 2.46582 16.7822 1.93262C17.0374 1.39941 17.3975 0.991536 17.8623 0.708984C18.3271 0.426432 18.8695 0.285156 19.4893 0.285156C20.4736 0.285156 21.2484 0.654297 21.8135 1.39258C22.3831 2.1263 22.668 3.12891 22.668 4.40039V4.76953C22.668 6.70638 22.2852 8.12142 21.5195 9.01465C20.7539 9.90332 19.5986 10.359 18.0537 10.3818H17.8076V9.31543H18.0742C19.1178 9.2972 19.9199 9.02604 20.4805 8.50195C21.041 7.97331 21.3464 7.13932 21.3965 6ZM19.4482 6C19.8721 6 20.2617 5.87012 20.6172 5.61035C20.9772 5.35059 21.2393 5.0293 21.4033 4.64648V4.14062C21.4033 3.3112 21.2233 2.63672 20.8633 2.11719C20.5033 1.59766 20.0475 1.33789 19.4961 1.33789C18.9401 1.33789 18.4935 1.55208 18.1562 1.98047C17.819 2.4043 17.6504 2.96484 17.6504 3.66211C17.6504 4.34115 17.8122 4.90169 18.1357 5.34375C18.4639 5.78125 18.9014 6 19.4482 6Z" fill="#9B9B9B"/>
</svg>
