<svg width="39" height="11" viewBox="0 0 39 11" fill="none" xmlns="http://www.w3.org/2000/svg">
<path d="M6.16602 7.03223H7.54688V8.06445H6.16602V10.375H4.89453V8.06445H0.362305V7.31934L4.81934 0.421875H6.16602V7.03223ZM1.79785 7.03223H4.89453V2.15137L4.74414 2.4248L1.79785 7.03223ZM13.5352 6C13.2708 6.31445 12.9541 6.56738 12.585 6.75879C12.2204 6.9502 11.8193 7.0459 11.3818 7.0459C10.8076 7.0459 10.3063 6.90462 9.87793 6.62207C9.4541 6.33952 9.12598 5.94303 8.89355 5.43262C8.66113 4.91764 8.54492 4.35026 8.54492 3.73047C8.54492 3.0651 8.67025 2.46582 8.9209 1.93262C9.17611 1.39941 9.53613 0.991536 10.001 0.708984C10.4658 0.426432 11.0081 0.285156 11.6279 0.285156C12.6123 0.285156 13.387 0.654297 13.9521 1.39258C14.5218 2.1263 14.8066 3.12891 14.8066 4.40039V4.76953C14.8066 6.70638 14.4238 8.12142 13.6582 9.01465C12.8926 9.90332 11.7373 10.359 10.1924 10.3818H9.94629V9.31543H10.2129C11.2565 9.2972 12.0586 9.02604 12.6191 8.50195C13.1797 7.97331 13.485 7.13932 13.5352 6ZM11.5869 6C12.0107 6 12.4004 5.87012 12.7559 5.61035C13.1159 5.35059 13.3779 5.0293 13.542 4.64648V4.14062C13.542 3.3112 13.362 2.63672 13.002 2.11719C12.6419 1.59766 12.1862 1.33789 11.6348 1.33789C11.0788 1.33789 10.6322 1.55208 10.2949 1.98047C9.95768 2.4043 9.78906 2.96484 9.78906 3.66211C9.78906 4.34115 9.95085 4.90169 10.2744 5.34375C10.6025 5.78125 11.04 6 11.5869 6ZM17.1309 5.38477L17.6367 0.421875H22.7363V1.59082H18.71L18.4092 4.30469C18.8968 4.01758 19.4505 3.87402 20.0703 3.87402C20.9772 3.87402 21.6973 4.1748 22.2305 4.77637C22.7637 5.37337 23.0303 6.18229 23.0303 7.20312C23.0303 8.22852 22.7523 9.03743 22.1963 9.62988C21.6449 10.2178 20.8724 10.5117 19.8789 10.5117C18.9993 10.5117 18.2816 10.2679 17.7256 9.78027C17.1696 9.29264 16.8529 8.61816 16.7754 7.75684H17.9717C18.0492 8.3265 18.252 8.75716 18.5801 9.04883C18.9082 9.33594 19.3411 9.47949 19.8789 9.47949C20.4668 9.47949 20.9271 9.27897 21.2598 8.87793C21.597 8.47689 21.7656 7.92318 21.7656 7.2168C21.7656 6.55143 21.5833 6.01823 21.2188 5.61719C20.8587 5.21159 20.3779 5.00879 19.7764 5.00879C19.2249 5.00879 18.792 5.12956 18.4775 5.37109L18.1426 5.64453L17.1309 5.38477ZM30.6523 6.12988C30.6523 7.611 30.3994 8.71159 29.8936 9.43164C29.3877 10.1517 28.597 10.5117 27.5215 10.5117C26.4596 10.5117 25.6735 10.1608 25.1631 9.45898C24.6527 8.7526 24.3883 7.69987 24.3701 6.30078V4.6123C24.3701 3.14941 24.623 2.0625 25.1289 1.35156C25.6348 0.640625 26.4277 0.285156 27.5078 0.285156C28.5788 0.285156 29.3672 0.629232 29.873 1.31738C30.3789 2.00098 30.6387 3.05827 30.6523 4.48926V6.12988ZM29.3877 4.40039C29.3877 3.32943 29.2373 2.55013 28.9365 2.0625C28.6357 1.57031 28.1595 1.32422 27.5078 1.32422C26.8607 1.32422 26.389 1.56803 26.0928 2.05566C25.7965 2.54329 25.6439 3.29297 25.6348 4.30469V6.32812C25.6348 7.40365 25.7897 8.19889 26.0996 8.71387C26.4141 9.22428 26.888 9.47949 27.5215 9.47949C28.1458 9.47949 28.6084 9.23796 28.9092 8.75488C29.2145 8.27181 29.374 7.51074 29.3877 6.47168V4.40039ZM38.5137 6.12988C38.5137 7.611 38.2607 8.71159 37.7549 9.43164C37.249 10.1517 36.4583 10.5117 35.3828 10.5117C34.321 10.5117 33.5348 10.1608 33.0244 9.45898C32.514 8.7526 32.2497 7.69987 32.2314 6.30078V4.6123C32.2314 3.14941 32.4844 2.0625 32.9902 1.35156C33.4961 0.640625 34.2891 0.285156 35.3691 0.285156C36.4401 0.285156 37.2285 0.629232 37.7344 1.31738C38.2402 2.00098 38.5 3.05827 38.5137 4.48926V6.12988ZM37.249 4.40039C37.249 3.32943 37.0986 2.55013 36.7979 2.0625C36.4971 1.57031 36.0208 1.32422 35.3691 1.32422C34.722 1.32422 34.2503 1.56803 33.9541 2.05566C33.6579 2.54329 33.5052 3.29297 33.4961 4.30469V6.32812C33.4961 7.40365 33.651 8.19889 33.9609 8.71387C34.2754 9.22428 34.7493 9.47949 35.3828 9.47949C36.0072 9.47949 36.4697 9.23796 36.7705 8.75488C37.0758 8.27181 37.2354 7.51074 37.249 6.47168V4.40039Z" fill="#9B9B9B"/>
</svg>
